<svg xmlns="http://www.w3.org/2000/svg" width="24" height="24" viewBox="0 0 24 24" fill="none">
                      <g clip-path="url(#clip0_11611_1262)">
                        <path d="M22.3627 21.4751C21.7765 17.3732 20.3465 7.36164 20.3465 7.36164C20.2969 7.01482 19.9999 6.75721 19.6495 6.75721H16.5833V4.44501C16.3576 -1.48394 7.85843 -1.47944 7.6349 4.44501V6.75721H4.56874C4.21839 6.75721 3.92141 7.01482 3.87185 7.36164C3.87185 7.36164 2.44178 17.3732 1.85556 21.4751C1.76475 22.1104 1.95388 22.7527 2.37434 23.2373C2.79481 23.722 3.40389 23.9999 4.04545 23.9999H20.1729C20.8144 23.9999 21.4234 23.722 21.8439 23.2373C22.2644 22.7527 22.4535 22.1104 22.3627 21.4751ZM9.0429 4.44501C9.19754 0.381835 15.0221 0.384885 15.1754 4.44501V6.75721H9.0429V4.44501ZM20.7804 22.3147C20.6275 22.4909 20.406 22.592 20.1729 22.592H4.04545C3.8122 22.592 3.59077 22.4909 3.43787 22.3147C3.28506 22.1386 3.21635 21.9051 3.24934 21.6742C3.74898 18.1785 4.86145 10.3904 5.17932 8.16517H7.63494V9.7233C7.66958 10.6564 9.00859 10.6557 9.0429 9.7233V8.16517H15.1754V9.7233C15.21 10.6564 16.549 10.6557 16.5833 9.7233V8.16517H19.039C19.3568 10.3904 20.4694 18.1785 20.9689 21.6742C21.0019 21.9051 20.9332 22.1386 20.7804 22.3147Z" fill="#000"></path>
                      </g>
                      <defs>
                        <clipPath id="clip0_11611_1262">
                          <rect width="24" height="24" fill="black" transform="translate(0.109131)"></rect>
                        </clipPath>
                      </defs>
                    </svg>